<svg xmlns="http://www.w3.org/2000/svg" width="1200" height="675" viewBox="0 0 1200 675" role="img" aria-label="Fake account detector preview">
  <defs>
    <linearGradient id="bg5" x1="0" y1="0" x2="1" y2="1">
      <stop offset="0%" stop-color="#f0fdfa"/>
      <stop offset="100%" stop-color="#e0f2fe"/>
    </linearGradient>
  </defs>
  <rect width="1200" height="675" fill="url(#bg5)"/>
  <rect x="72" y="72" width="1056" height="531" rx="22" fill="#ffffff" stroke="#bae6fd" stroke-width="3"/>
  <rect x="112" y="120" width="1016" height="66" rx="12" fill="#f8fbff"/>
  <rect x="112" y="210" width="490" height="345" rx="16" fill="#eff6ff"/>
  <rect x="622" y="210" width="506" height="160" rx="16" fill="#eff6ff"/>
  <rect x="622" y="394" width="506" height="161" rx="16" fill="#eff6ff"/>
  <circle cx="250" cy="300" r="44" fill="#93c5fd"/>
  <rect x="320" y="276" width="220" height="20" rx="8" fill="#cfe3ff"/>
  <rect x="320" y="310" width="180" height="18" rx="8" fill="#dbeafe"/>
  <circle cx="250" cy="420" r="44" fill="#fca5a5"/>
  <rect x="320" y="396" width="220" height="20" rx="8" fill="#fecaca"/>
  <rect x="320" y="430" width="180" height="18" rx="8" fill="#fee2e2"/>
  <text x="652" y="300" font-family="Arial, sans-serif" font-size="22" fill="#334155">Prediction</text>
  <text x="652" y="345" font-family="Arial, sans-serif" font-size="38" font-weight="700" fill="#0f766e">REAL / FAKE</text>
  <text x="142" y="162" font-family="Arial, sans-serif" font-size="28" font-weight="700" fill="#0f766e">Fake Social Media Account Detection</text>
</svg>