<svg xmlns="http://www.w3.org/2000/svg" width="1200" height="675" viewBox="0 0 1200 675" role="img" aria-label="Fraud Detection dashboard preview">
  <defs>
    <linearGradient id="bg3" x1="0" y1="0" x2="1" y2="1">
      <stop offset="0%" stop-color="#eff6ff"/>
      <stop offset="100%" stop-color="#dbeafe"/>
    </linearGradient>
  </defs>
  <rect width="1200" height="675" fill="url(#bg3)"/>
  <rect x="72" y="72" width="1056" height="531" rx="22" fill="#ffffff" stroke="#bfdbfe" stroke-width="3"/>
  <rect x="112" y="120" width="1016" height="66" rx="12" fill="#f8fbff"/>
  <rect x="112" y="210" width="320" height="160" rx="14" fill="#eff6ff"/>
  <rect x="456" y="210" width="320" height="160" rx="14" fill="#eff6ff"/>
  <rect x="800" y="210" width="320" height="160" rx="14" fill="#eff6ff"/>
  <rect x="112" y="392" width="660" height="163" rx="14" fill="#eff6ff"/>
  <rect x="792" y="392" width="328" height="163" rx="14" fill="#eff6ff"/>
  <rect x="142" y="250" width="60" height="90" rx="8" fill="#60a5fa"/>
  <rect x="212" y="230" width="60" height="110" rx="8" fill="#3b82f6"/>
  <rect x="282" y="268" width="60" height="72" rx="8" fill="#93c5fd"/>
  <polyline points="500,330 560,280 620,305 680,250 740,270" fill="none" stroke="#2563eb" stroke-width="8" stroke-linecap="round" stroke-linejoin="round"/>
  <circle cx="680" cy="250" r="9" fill="#ef4444"/>
  <text x="142" y="162" font-family="Arial, sans-serif" font-size="28" font-weight="700" fill="#1e3a8a">E-commerce Fraud Detection</text>
  <text x="142" y="426" font-family="Arial, sans-serif" font-size="20" fill="#334155">Risk tiers: Low / Medium / High</text>
</svg>