<svg xmlns="http://www.w3.org/2000/svg" width="1200" height="675" viewBox="0 0 1200 675" role="img" aria-label="House price prediction preview">
  <defs>
    <linearGradient id="bg4" x1="0" y1="0" x2="1" y2="1">
      <stop offset="0%" stop-color="#f0f9ff"/>
      <stop offset="100%" stop-color="#dbeafe"/>
    </linearGradient>
  </defs>
  <rect width="1200" height="675" fill="url(#bg4)"/>
  <rect x="72" y="72" width="1056" height="531" rx="22" fill="#ffffff" stroke="#bfdbfe" stroke-width="3"/>
  <rect x="112" y="120" width="1016" height="66" rx="12" fill="#f8fbff"/>
  <rect x="112" y="210" width="500" height="345" rx="16" fill="#eff6ff"/>
  <rect x="636" y="210" width="492" height="160" rx="16" fill="#eff6ff"/>
  <rect x="636" y="394" width="492" height="161" rx="16" fill="#eff6ff"/>
  <polygon points="220,360 360,250 500,360 500,500 220,500" fill="#60a5fa"/>
  <rect x="330" y="410" width="60" height="90" fill="#1e3a8a"/>
  <text x="666" y="300" font-family="Arial, sans-serif" font-size="44" font-weight="700" fill="#1e3a8a">$100K</text>
  <text x="666" y="340" font-family="Arial, sans-serif" font-size="18" fill="#334155">Predicted median value</text>
  <polyline points="666,500 736,470 806,455 876,430 946,405 1016,385" fill="none" stroke="#2563eb" stroke-width="8" stroke-linecap="round"/>
  <text x="142" y="162" font-family="Arial, sans-serif" font-size="28" font-weight="700" fill="#1e3a8a">California House Price Prediction</text>
</svg>