<svg xmlns="http://www.w3.org/2000/svg" width="1200" height="675" viewBox="0 0 1200 675" role="img" aria-label="Power BI dashboard preview">
  <defs>
    <linearGradient id="bg6" x1="0" y1="0" x2="1" y2="1">
      <stop offset="0%" stop-color="#f8fafc"/>
      <stop offset="100%" stop-color="#e2e8f0"/>
    </linearGradient>
  </defs>
  <rect width="1200" height="675" fill="url(#bg6)"/>
  <rect x="72" y="72" width="1056" height="531" rx="22" fill="#ffffff" stroke="#cbd5e1" stroke-width="3"/>
  <rect x="112" y="120" width="1016" height="66" rx="12" fill="#f8fafc"/>
  <rect x="112" y="210" width="240" height="150" rx="14" fill="#f1f5f9"/>
  <rect x="372" y="210" width="240" height="150" rx="14" fill="#f1f5f9"/>
  <rect x="632" y="210" width="240" height="150" rx="14" fill="#f1f5f9"/>
  <rect x="892" y="210" width="236" height="150" rx="14" fill="#f1f5f9"/>
  <rect x="112" y="380" width="500" height="175" rx="14" fill="#f1f5f9"/>
  <rect x="632" y="380" width="496" height="175" rx="14" fill="#f1f5f9"/>
  <rect x="150" y="250" width="70" height="70" rx="10" fill="#60a5fa"/>
  <rect x="410" y="250" width="70" height="70" rx="10" fill="#22c55e"/>
  <rect x="670" y="250" width="70" height="70" rx="10" fill="#f59e0b"/>
  <rect x="930" y="250" width="70" height="70" rx="10" fill="#a78bfa"/>
  <polyline points="680,520 750,500 820,470 890,455 960,430 1030,410" fill="none" stroke="#334155" stroke-width="8" stroke-linecap="round"/>
  <text x="142" y="162" font-family="Arial, sans-serif" font-size="28" font-weight="700" fill="#1e293b">Awesome Chocolate Power BI Report</text>
</svg>