<svg xmlns="http://www.w3.org/2000/svg" width="1200" height="675" viewBox="0 0 1200 675" role="img" aria-label="SkillBridge project preview">
  <defs>
    <linearGradient id="bg1" x1="0" y1="0" x2="1" y2="1">
      <stop offset="0%" stop-color="#eaf2ff"/>
      <stop offset="100%" stop-color="#cfe0ff"/>
    </linearGradient>
  </defs>
  <rect width="1200" height="675" fill="url(#bg1)"/>
  <rect x="64" y="72" width="1072" height="531" rx="22" fill="#ffffff" stroke="#bcd2ff" stroke-width="3"/>
  <rect x="96" y="112" width="220" height="451" rx="14" fill="#eff6ff"/>
  <rect x="344" y="112" width="760" height="70" rx="12" fill="#f8fbff"/>
  <rect x="344" y="206" width="360" height="160" rx="14" fill="#edf4ff"/>
  <rect x="726" y="206" width="378" height="160" rx="14" fill="#edf4ff"/>
  <rect x="344" y="388" width="760" height="175" rx="14" fill="#edf4ff"/>
  <circle cx="145" cy="145" r="16" fill="#3b82f6"/>
  <rect x="172" y="132" width="120" height="26" rx="8" fill="#bfdbfe"/>
  <rect x="120" y="198" width="170" height="20" rx="6" fill="#dbeafe"/>
  <rect x="120" y="234" width="140" height="20" rx="6" fill="#dbeafe"/>
  <rect x="120" y="270" width="160" height="20" rx="6" fill="#dbeafe"/>
  <text x="370" y="157" font-family="Arial, sans-serif" font-size="28" font-weight="700" fill="#1e3a8a">SkillBridge Career Path Generator</text>
  <text x="370" y="243" font-family="Arial, sans-serif" font-size="18" fill="#334155">Role roadmap</text>
  <text x="752" y="243" font-family="Arial, sans-serif" font-size="18" fill="#334155">Resource feed</text>
  <text x="370" y="425" font-family="Arial, sans-serif" font-size="18" fill="#334155">Weekly plan and interview prep</text>
</svg>